<?xml version="1.0" encoding="utf-8"?>
<!-- Generator: Adobe Illustrator 22.1.0, SVG Export Plug-In . SVG Version: 6.00 Build 0)  -->
<svg version="1.1" id="Layer_1" xmlns="http://www.w3.org/2000/svg" xmlns:xlink="http://www.w3.org/1999/xlink" x="0px" y="0px"
	 viewBox="0 0 48 46.5" style="enable-background:new 0 0 48 46.5;" xml:space="preserve">
<style type="text/css">
	.st0{fill:#E1E1E1;}
</style>
<path class="st0" d="M45.7,24h-1.6c0-3-1.5-5.7-3.9-7.5V12c0-1.5-1.2-2.7-2.7-2.7c-3.2,0-5.9,2.3-6.5,5.4h-2.4v1.5h3.8v-0.7
	c0.2-2.6,2.4-4.7,5-4.7c0.6,0,1.2,0.5,1.2,1.2v5.3l0.3,0.2c2.2,1.5,3.5,3.9,3.5,6.6v1.4h3.1c0.4,0,0.8,0.3,0.8,0.8v7.8
	c0,0.4-0.3,0.8-0.8,0.8h-3.3L42,35.5c-0.8,2.6-2.7,4.6-5.3,5.3L36.1,41v3.6c0,0.2-0.2,0.4-0.4,0.4H28c-0.2,0-0.4-0.2-0.4-0.4V41
	h-7.7v3.5c0,0.2-0.2,0.4-0.4,0.4H12c-0.2,0-0.4-0.2-0.4-0.4v-4.2l-0.4-0.2c-2.6-1.4-4.2-4-4.2-7V24c0-3.8,2.7-7.1,6.5-7.7l-0.3-1.5
	c-4.5,0.8-7.8,4.7-7.8,9.3v2.2H4.5c0.1-0.2,0.1-0.5,0.1-0.8c0-1.3-1-2.3-2.3-2.3c-0.3,0-0.5,0.1-0.8,0.1v-2.5H0v4.6
	c0,1.3,1,2.3,2.3,2.3h3.1V33c0,3.4,1.8,6.4,4.6,8.1v3.2c0,1.1,0.9,1.9,1.9,1.9h7.7c1.1,0,1.9-0.9,1.9-1.9v-1.9h4.6v1.9
	c0,1.1,0.9,1.9,1.9,1.9h8c1.1,0,1.9-0.9,1.9-1.9V42c2.6-1,4.7-3,5.6-5.6h2.1c1.3,0,2.3-1,2.3-2.3v-7.8C48,25,47,24,45.7,24L45.7,24z
	 M1.5,25.5c0-0.4,0.3-0.8,0.8-0.8c0.4,0,0.8,0.3,0.8,0.8c0,0.4-0.3,0.8-0.8,0.8C1.9,26.3,1.5,26,1.5,25.5L1.5,25.5z"/>
<rect x="14.7" y="19.4" class="st0" width="12.4" height="1.5"/>
<path class="st0" d="M20.9,0c-5.5,0-10.1,4.5-10.1,10.1s4.5,10.1,10.1,10.1c5.5,0,10.1-4.5,10.1-10.1S26.5,0,20.9,0z M25.5,8.5H24
	V7.4c0-1.1-0.9-1.9-1.9-1.9h-2.3c-1.1,0-1.9,0.9-1.9,1.9c0,1.1,0.9,1.9,1.9,1.9h2.3c1.9,0,3.5,1.6,3.5,3.5s-1.6,3.5-3.5,3.5h-0.4
	v1.5h-1.5v-1.5h-0.4c-1.9,0-3.5-1.6-3.5-3.5v-1.2h1.5v1.2c0,1.1,0.9,1.9,1.9,1.9H22c1.1,0,1.9-0.9,1.9-1.9c0-1.1-0.9-1.9-1.9-1.9
	h-2.3c-1.9,0-3.5-1.6-3.5-3.5s1.6-3.5,3.5-3.5h0.4V2.3h1.5v1.5H22c1.9,0,3.5,1.6,3.5,3.5V8.5z"/>
<path class="st0" d="M32.4,22.9c0,0,0.8-1.2,2.4-1.2c1.6,0,2.4,1.1,2.4,1.2c0.1,0.2,0.4,0.4,0.7,0.4c0.1,0,0.3,0,0.4-0.1
	c0.4-0.2,0.5-0.7,0.2-1.1c0-0.1-1.3-1.9-3.7-1.9c-2.5,0-3.7,1.8-3.7,1.9c-0.2,0.4-0.1,0.8,0.2,1.1C31.7,23.3,32.2,23.2,32.4,22.9
	L32.4,22.9z"/>
</svg>
