<?xml version="1.0" encoding="utf-8"?>
<!-- Generator: Adobe Illustrator 22.1.0, SVG Export Plug-In . SVG Version: 6.00 Build 0)  -->
<svg version="1.1" id="Layer_1" xmlns="http://www.w3.org/2000/svg" xmlns:xlink="http://www.w3.org/1999/xlink" x="0px" y="0px"
	 viewBox="0 0 48 48" style="enable-background:new 0 0 48 48;" xml:space="preserve">
<style type="text/css">
	.st0{fill:none;}
	.st1{fill:#E1E1E1;}
</style>
<g>
	<path class="st0" d="M10.2,18.6l19.4,0L10.2,18.6C10.2,18.5,10.2,18.5,10.2,18.6z"/>
	<polygon class="st0" points="28,5.6 28,10.9 33.3,10.9 	"/>
	<path class="st0" d="M10.2,24.8l19.4,0v-0.1L10.2,24.8C10.2,24.7,10.2,24.8,10.2,24.8z"/>
	<polygon class="st0" points="32.8,10.1 32.8,1.6 1.6,1.6 1.6,42.4 4,42.4 4,4 26.7,4 	"/>
	<polygon class="st0" points="27.2,15.2 35.7,15.2 27.2,6.7 	"/>
	<path class="st0" d="M36.2,42.7c-0.3,0.3-0.3,0.8,0,1.1c0.2,0.2,0.4,0.2,0.6,0.2v-1.9L36.2,42.7z"/>
	<path class="st0" d="M32,40c0,0.4-0.4,0.8-0.8,0.8h-20c-0.4,0-0.8-0.4-0.8-0.8s0.4-0.8,0.8-0.8h20C31.6,39.2,32,39.6,32,40
		c0-3.3,2-6.1,4.8-7.3V16.8H25.6V5.6h-20v40.8h29.6C33.3,44.9,32,42.6,32,40z M11.2,13.6h8c0.4,0,0.8,0.4,0.8,0.8
		c0,0.4-0.4,0.8-0.8,0.8h-8c-0.4,0-0.8-0.4-0.8-0.8C10.4,14,10.8,13.6,11.2,13.6z M11.2,20h20c0.4,0,0.8,0.4,0.8,0.8
		c0,0.4-0.4,0.8-0.8,0.8h-20c-0.4,0-0.8-0.4-0.8-0.8C10.4,20.4,10.8,20,11.2,20z M11.2,26.4h20c0.4,0,0.8,0.4,0.8,0.8
		c0,0.4-0.4,0.8-0.8,0.8h-20c-0.4,0-0.8-0.4-0.8-0.8C10.4,26.8,10.8,26.4,11.2,26.4z M11.2,32.8h20c0.4,0,0.8,0.4,0.8,0.8
		c0,0.4-0.4,0.8-0.8,0.8h-20c-0.4,0-0.8-0.4-0.8-0.8C10.4,33.2,10.8,32.8,11.2,32.8z"/>
	<path class="st0" d="M38.9,40l-0.5,0.5v2.2l1.6-1.6l2.7,2.7c0.3,0.3,0.8,0.3,1.1,0c0.3-0.3,0.3-0.8,0-1.1L41.1,40l2.7-2.7
		c0.3-0.3,0.3-0.8,0-1.1c-0.3-0.3-0.8-0.3-1.1,0L40,38.9l-1.6-1.6v2.2L38.9,40z"/>
	<path class="st0" d="M36.2,36.2c-0.3,0.3-0.3,0.8,0,1.1l0.6,0.6V36C36.6,35.9,36.3,36,36.2,36.2z"/>
	<path class="st1" d="M11.2,21.6h20c0.4,0,0.8-0.4,0.8-0.8c0-0.4-0.4-0.8-0.8-0.8h-20c-0.4,0-0.8,0.4-0.8,0.8
		C10.4,21.2,10.8,21.6,11.2,21.6z"/>
	<path class="st1" d="M11.2,15.2h8c0.4,0,0.8-0.4,0.8-0.8c0-0.4-0.4-0.8-0.8-0.8h-8c-0.4,0-0.8,0.4-0.8,0.8
		C10.4,14.8,10.8,15.2,11.2,15.2z"/>
	<path class="st1" d="M11.2,28h20c0.4,0,0.8-0.4,0.8-0.8c0-0.4-0.4-0.8-0.8-0.8h-20c-0.4,0-0.8,0.4-0.8,0.8
		C10.4,27.6,10.8,28,11.2,28z"/>
	<path class="st1" d="M11.2,34.4h20c0.4,0,0.8-0.4,0.8-0.8c0-0.4-0.4-0.8-0.8-0.8h-20c-0.4,0-0.8,0.4-0.8,0.8
		C10.4,34,10.8,34.4,11.2,34.4z"/>
	<path class="st1" d="M31.2,39.2h-20c-0.4,0-0.8,0.4-0.8,0.8s0.4,0.8,0.8,0.8h20c0.4,0,0.8-0.4,0.8-0.8S31.6,39.2,31.2,39.2z"/>
	<path class="st1" d="M5.6,46.4V5.6h20v11.2h11.2v15.9c0.5-0.2,1-0.4,1.6-0.5V15.7l-4-4V0H0v44h4v4h34.4v-0.2
		c-1.2-0.2-2.3-0.7-3.2-1.4H5.6z M35.7,15.2h-8.5V6.7L35.7,15.2z M4,42.4H1.6V1.6h31.2v8.5L26.7,4H4V42.4z"/>
	<path class="st1" d="M40,32c-0.5,0-1.1,0.1-1.6,0.2v5.1l1.6,1.6l2.7-2.7c0.3-0.3,0.8-0.3,1.1,0c0.3,0.3,0.3,0.8,0,1.1L41.1,40
		l2.7,2.7c0.3,0.3,0.3,0.8,0,1.1c-0.3,0.3-0.8,0.3-1.1,0L40,41.1l-1.6,1.6v5.1c0.5,0.1,1.1,0.2,1.6,0.2c4.4,0,8-3.6,8-8
		S44.4,32,40,32z"/>
	<polygon class="st1" points="38.9,40 38.4,39.5 38.4,40.5 	"/>
	<path class="st1" d="M36.2,43.8c-0.3-0.3-0.3-0.8,0-1.1l0.6-0.6v-4.2l-0.6-0.6c-0.3-0.3-0.3-0.8,0-1.1c0.2-0.2,0.4-0.2,0.6-0.2
		v-3.3C34,33.9,32,36.7,32,40c0,2.6,1.3,4.9,3.2,6.4h1.6V44C36.6,44.1,36.3,44,36.2,43.8z"/>
	<polygon class="st1" points="38.4,40.5 38.4,39.5 36.8,37.9 36.8,42.1 	"/>
	<path class="st1" d="M36.8,36c0.2,0,0.3,0.1,0.5,0.2l1.1,1.1v-5.1c-0.6,0.1-1.1,0.3-1.6,0.5V36z"/>
	<path class="st1" d="M37.3,43.8C37.1,44,37,44,36.8,44v2.3h-1.6c0.9,0.7,2,1.2,3.2,1.4v-5.1L37.3,43.8z"/>
</g>
</svg>
