<?xml version="1.0" encoding="utf-8"?>
<!-- Generator: Adobe Illustrator 22.1.0, SVG Export Plug-In . SVG Version: 6.00 Build 0)  -->
<svg version="1.1" id="Layer_1" xmlns="http://www.w3.org/2000/svg" xmlns:xlink="http://www.w3.org/1999/xlink" x="0px" y="0px"
	 viewBox="0 0 48 48" style="enable-background:new 0 0 48 48;" xml:space="preserve">
<style type="text/css">
	.st0{fill:#E1E1E1;}
</style>
<path class="st0" d="M41,6.4c-11.7,0-16.9-6.1-17-6.1c-0.3-0.4-0.9-0.4-1.2,0c-0.1,0.1-5.2,6.1-17,6.1C5.4,6.4,5,6.7,5,7.2v15.3
	c0,8.3,3.8,16.3,10,21.2c2.5,2,5.3,3.4,8.1,4.3c0.1,0,0.2,0,0.2,0c0.1,0,0.2,0,0.2,0c2.9-0.9,5.6-2.3,8.1-4.3
	c6.3-4.9,10-12.9,10-21.2V7.2C41.8,6.7,41.4,6.4,41,6.4L41,6.4z M40.2,22.5c0,7.9-3.5,15.3-9.4,20c-2.3,1.8-4.8,3.1-7.4,3.9
	c-2.6-0.8-5.1-2.1-7.4-3.9c-5.9-4.6-9.4-12.1-9.4-20V8c9.8-0.2,15.1-4.4,16.8-6c1.7,1.6,7,5.8,16.8,6V22.5z M40.2,22.5"/>
<g>
	<path class="st0" d="M28.4,30.2l-3.8-1.9c-0.4-0.2-0.6-0.5-0.6-0.9v-1.4c0.1-0.1,0.2-0.2,0.3-0.4c0.5-0.7,0.9-1.5,1.2-2.3
		c0.6-0.3,0.9-0.8,0.9-1.4v-1.6c0-0.4-0.1-0.8-0.4-1V17c0-0.2,0.1-1.5-0.8-2.6c-0.8-0.9-2.2-1.4-4-1.4c-1.8,0-3.1,0.5-4,1.4
		c-0.9,1.1-0.9,2.4-0.8,2.6v2.1c-0.3,0.3-0.4,0.7-0.4,1v1.6c0,0.5,0.2,0.9,0.6,1.2c0.4,1.5,1.1,2.5,1.4,2.9v1.3
		c0,0.4-0.2,0.7-0.6,0.9l-3.6,1.9C12.7,30.8,12,32,12,33.3V35h18.4v-1.6C30.4,32,29.6,30.8,28.4,30.2L28.4,30.2z M28.4,30.2"/>
	<path class="st0" d="M34.2,30.6l-3.9-1.7c-0.1,0-0.2-0.2-0.3-0.3l2.6,0c0,0,0.2,0,0.4,0c0.4,0,1.1,0,1.6-0.3
		c0.3-0.1,0.6-0.4,0.7-0.8c0.1-0.3,0-0.7-0.2-1c-0.7-1.1-2.5-3.8-2.5-6.6c0,0-0.2-4.8-4.9-4.9c-0.5,0-0.9,0.1-1.3,0.2
		c0.3,0.8,0.3,1.6,0.3,1.8v1.9c0.3,0.4,0.4,0.8,0.4,1.3v1.6c0,0.8-0.4,1.5-1,1.9c-0.3,0.8-0.7,1.6-1.2,2.2c-0.1,0.1-0.1,0.2-0.2,0.2
		v1.1c0,0.2,0.1,0.3,0.3,0.4l3.8,1.9c1.4,0.7,2.3,2.2,2.3,3.8V35h5v-1.5C36,32.3,35.3,31.2,34.2,30.6L34.2,30.6z M34.2,30.6"/>
</g>
</svg>
