<?xml version="1.0" encoding="utf-8"?>
<!-- Generator: Adobe Illustrator 22.1.0, SVG Export Plug-In . SVG Version: 6.00 Build 0)  -->
<svg version="1.1" id="Layer_1" xmlns="http://www.w3.org/2000/svg" xmlns:xlink="http://www.w3.org/1999/xlink" x="0px" y="0px"
	 viewBox="0 0 26.6 53.1" style="enable-background:new 0 0 26.6 53.1;" xml:space="preserve">
<style type="text/css">
	.st0{fill:#E1E1E1;}
</style>
<g>
	<path class="st0" d="M18.4,37.1c2.3-0.1,4.2-1.9,4.2-4.3c0-1.1-0.5-2.2-1.3-3s-1.8-1.3-3-1.3c-1.1,0-2.2,0.5-3,1.3s-1.3,1.8-1.3,3
		c0,1.1,0.5,2.2,1.3,3C16.2,36.6,17.3,37.1,18.4,37.1L18.4,37.1z M20.9,32.8c0,1.4-1.1,2.6-2.5,2.6c-1.4,0-2.6-1.1-2.6-2.5
		c0-0.7,0.2-1.3,0.7-1.8c0.5-0.5,1.1-0.7,1.8-0.7s1.3,0.2,1.8,0.7C20.7,31.5,20.9,32.1,20.9,32.8L20.9,32.8z"/>
	<path class="st0" d="M12.9,41.9c0-2.3-1.9-4.2-4.3-4.2c-2.3,0-4.2,1.9-4.1,4.2c0,1.1,0.5,2.2,1.3,3s1.8,1.3,3,1.3
		C11,46.1,12.9,44.2,12.9,41.9L12.9,41.9z M6.1,42c0-1.4,1.1-2.6,2.5-2.6c1.4,0,2.6,1.1,2.6,2.5c0,1.4-1.1,2.6-2.5,2.6
		S6.1,43.4,6.1,42L6.1,42z"/>
	<g>
		<path class="st0" d="M11.8,29.5c-0.2-0.5-0.6-0.6-1-0.6c-0.4,0.1-0.6,0.6-0.5,1.1l5,15.4c0,0.1,0.1,0.3,0.2,0.4
			c0.2,0.2,0.5,0.4,0.8,0.2c0.4-0.1,0.6-0.6,0.5-1.1L11.8,29.5L11.8,29.5z"/>
		<path class="st0" d="M10.2,1.6c-1,1-1.6,2.3-1.7,3.7l0.1,9.2l-7.4,6.2C0.5,21.4,0,22.3,0,23.3l0.2,27.4c0,0.7,0.3,1.3,0.7,1.7
			c0.5,0.5,1.1,0.7,1.7,0.7L24.2,53c1.3-0.1,2.4-1.1,2.4-2.4l-0.1-27.5c0-1-0.4-2-1.2-2.6l-6-4.8l2.6-2.6c2-2.1,2-5.5,0-7.5l-4.1-4
			C15.6-0.5,12.2-0.5,10.2,1.6L10.2,1.6z M1.7,23.3c0-0.6,0.2-0.9,0.5-1.2l9.8-8.2c0.6-0.5,1.5-0.5,2.1,0l2.5,2L15,17.5
			C14.4,17.2,13.7,17,13,17c-0.9-0.1-1.8,0.3-2.5,1c-0.6,0.6-1,1.6-1,2.6c-0.1,0.9,0.3,1.8,1,2.5c0.6,0.6,1.6,1,2.6,1
			c0.9,0.1,1.8-0.3,2.5-1c0.6-0.6,1-1.6,1-2.6c0-0.7-0.2-1.3-0.5-1.9l1.8-1.8l6.2,5c0.1,0.1,0.1,0.1,0.1,0.1
			c0.4,0.4,0.5,0.8,0.5,1.2l0.2,27.4c0.1,0.4-0.3,0.7-0.7,0.7L2.6,51.4c-0.1,0-0.4-0.1-0.5-0.2c-0.1-0.1-0.2-0.4-0.2-0.5L1.7,23.3
			L1.7,23.3z M15,19.7c0.1,0.2,0.1,0.6,0.2,0.8c0,0.6-0.2,1.1-0.6,1.4c-0.4,0.4-0.8,0.6-1.4,0.6c-0.6,0-1.1-0.2-1.4-0.6
			c-0.4-0.4-0.6-0.8-0.6-1.4c0-0.3,0.1-0.5,0.2-0.8C12.6,20.4,14,20.3,15,19.7L15,19.7z M10.3,5.3c0-1,0.3-1.9,1.1-2.6
			c1.5-1.5,3.8-1.4,5.2,0l4.1,4c1.5,1.5,1.4,3.8,0,5.2L18,14.7l-2.6-2.2c-1.3-1-3-1-4.2,0l-0.8,0.6L10.3,5.3L10.3,5.3z"/>
	</g>
</g>
</svg>
