<?xml version="1.0" encoding="utf-8"?>
<!-- Generator: Adobe Illustrator 22.1.0, SVG Export Plug-In . SVG Version: 6.00 Build 0)  -->
<svg version="1.1" id="Layer_1" xmlns="http://www.w3.org/2000/svg" xmlns:xlink="http://www.w3.org/1999/xlink" x="0px" y="0px"
	 viewBox="0 0 48 48" style="enable-background:new 0 0 48 48;" xml:space="preserve">
<style type="text/css">
	.st0{fill:#E1E1E1;}
</style>
<g>
	<path class="st0" d="M18.1,40.9c-2,0-3.6,1.6-3.6,3.6s1.6,3.6,3.6,3.6s3.6-1.6,3.6-3.6S20.1,40.9,18.1,40.9z M18.1,46.1
		c-0.9,0-1.7-0.8-1.7-1.7s0.8-1.7,1.7-1.7s1.7,0.8,1.7,1.7S19.1,46.1,18.1,46.1z"/>
	<path class="st0" d="M35.3,40.9c-2,0-3.6,1.6-3.6,3.6s1.6,3.6,3.6,3.6c2,0,3.6-1.6,3.6-3.6S37.3,40.9,35.3,40.9z M35.3,46.1
		c-0.9,0-1.7-0.8-1.7-1.7s0.8-1.7,1.7-1.7c0.9,0,1.7,0.8,1.7,1.7S36.3,46.1,35.3,46.1z"/>
	<path class="st0" d="M43.8,24.8c-0.5-0.1-1,0.2-1.1,0.7l-1.4,7.1c-0.1,0.4-0.5,0.8-0.9,0.8H13.4l-3.7-16h9.6c0.5,0,0.9-0.4,0.9-0.9
		c0-0.5-0.4-0.9-0.9-0.9H9.3l-1-4.3C8,9.9,6.9,9,5.6,9H0.9C0.4,9,0,9.4,0,9.9c0,0.5,0.4,0.9,0.9,0.9h4.6c0.4,0,0.8,0.3,0.9,0.7
		L12.8,39c0.1,0.4,0.5,0.7,0.9,0.7h23.9c0.5,0,0.9-0.4,0.9-0.9c0-0.5-0.4-0.9-0.9-0.9H14.4l-0.6-2.6h26.6c1.3,0,2.5-1,2.8-2.3
		l1.4-7.1C44.7,25.4,44.3,24.9,43.8,24.8z"/>
	<g>
		<path class="st0" d="M24.2,17.6h3.9c-0.4-1.4-0.6-2.9-0.6-4.4h-4.4C23.1,14.8,23.6,16.3,24.2,17.6z"/>
		<path class="st0" d="M29.6,17.6h5.2v-4.4h-5.9C29,14.7,29.2,16.2,29.6,17.6z"/>
		<path class="st0" d="M23.1,11.7h4.4c0.1-1.5,0.3-3,0.6-4.4h-3.9C23.6,8.7,23.1,10.2,23.1,11.7z"/>
		<path class="st0" d="M41.5,7.3h-5.2v4.4h5.9C42.1,10.3,41.9,8.7,41.5,7.3z"/>
		<path class="st0" d="M36.3,5.8H41c-1.1-3-2.8-5.4-4.8-5.8V5.8z"/>
		<path class="st0" d="M34.8,25v-5.8H30C31.1,22.1,32.8,24.5,34.8,25z"/>
		<path class="st0" d="M28.9,11.7h5.9V7.3h-5.2C29.2,8.7,29,10.3,28.9,11.7z"/>
		<path class="st0" d="M34.8,5.8V0c-2,0.5-3.7,2.9-4.8,5.8H34.8z"/>
		<path class="st0" d="M25,5.8h3.6c0.7-2,1.7-3.9,2.8-5.2C28.7,1.6,26.4,3.5,25,5.8z"/>
		<path class="st0" d="M46.1,5.8c-1.5-2.4-3.7-4.3-6.4-5.2c1.2,1.3,2.1,3.2,2.8,5.2H46.1z"/>
		<path class="st0" d="M36.3,19.1V25c2-0.5,3.7-2.9,4.8-5.8H36.3z"/>
		<path class="st0" d="M42.5,19.1c-0.7,2-1.7,3.9-2.8,5.2c2.7-0.9,4.9-2.9,6.4-5.2H42.5z"/>
		<path class="st0" d="M31.3,24.3c-1.2-1.3-2.1-3.2-2.8-5.2H25C26.4,21.5,28.7,23.4,31.3,24.3z"/>
		<path class="st0" d="M42.1,13.2h-5.9v4.4h5.2C41.9,16.2,42.1,14.7,42.1,13.2z"/>
		<path class="st0" d="M48,13.2h-4.4c-0.1,1.5-0.3,3-0.6,4.4h3.9C47.5,16.3,47.9,14.8,48,13.2z"/>
		<path class="st0" d="M46.9,7.3H43c0.4,1.4,0.6,2.9,0.6,4.4H48C47.9,10.2,47.5,8.7,46.9,7.3z"/>
	</g>
</g>
</svg>
