<svg xmlns="http://www.w3.org/2000/svg" viewBox="0 0 181.705 219.875"><path data-name="Path 8" d="M174.302 30.85a242.362 242.362 0 0 1-36.2-10.3 368.933 368.933 0 0 1-42.9-19.5 9.536 9.536 0 0 0-8.7 0 339.056 339.056 0 0 1-43 19.5 241.167 241.167 0 0 1-36.1 10.3 9.211 9.211 0 0 0-7.4 9.1q1.05 81.15 38.9 134a175.122 175.122 0 0 0 47 44.5 9.31 9.31 0 0 0 9.9 0 176.609 176.609 0 0 0 47-44.5q37.8-52.2 38.9-134a9.211 9.211 0 0 0-7.4-9.1zm-36.6 49.2l-65.3 65.3a3.8 3.8 0 0 1-5.4 0l-23-23a3.869 3.869 0 0 1 0-5.3 3.8 3.8 0 0 1 5.4-.1l20.3 20.3 62.6-62.6.1-.1a3.8 3.8 0 0 1 5.4.1 3.9 3.9 0 0 1-.1 5.4z" fill="#f2f2f2"/></svg>